<svg width="1920" height="472" viewBox="0 0 1920 472" fill="none" xmlns="http://www.w3.org/2000/svg">
<path d="M1915.12 0.0646748C1903.58 9.61453 1892.98 18.3565 1882.4 27.1213C1859.25 46.3049 1836.12 65.5113 1812.94 84.6796C1811.05 86.2421 1809.62 87.6292 1810.05 90.2129C1812.59 105.418 1814.9 120.646 1817.28 135.874C1819.77 151.719 1822.25 167.564 1824.75 183.44C1830.43 181.497 1831.92 179.165 1831.16 174.264C1827.99 153.876 1824.93 133.481 1821.79 113.093C1821.04 108.185 1820.24 103.284 1819.34 98.3985C1818.89 95.9748 1819.47 94.1761 1821.73 92.3165C1857.91 62.4246 1893.99 32.4412 1930.07 2.46548C1931.99 0.872564 1933.97 -0.103 1936.86 0.04181C1940.94 0.247593 1945.04 0.0951612 1949.2 0.0951612C1949.3 1.74143 1947.82 2.22921 1946.93 2.96088C1908.47 34.9335 1869.99 66.9061 1831.42 98.8024C1828.73 101.036 1827.6 103.048 1828.15 106.378C1831.69 127.734 1834.88 149.128 1838.19 170.506C1838.28 171.101 1838.49 171.68 1838.78 172.785C1842.12 169.851 1846.08 168.502 1845.14 163.403C1842.04 146.483 1839.83 129.441 1837.16 112.468C1836.82 110.342 1837.4 108.916 1839.21 107.422C1881.65 72.2717 1924.04 37.0828 1966.39 1.86337C1967.92 0.598187 1969.43 -0.0191628 1971.6 0.0341884C1975.99 0.148512 1980.4 0.0722964 1984.79 0.0722964C1985.15 0.445755 1985.51 0.819213 1985.86 1.19267C1984.11 2.32829 1982.22 3.32672 1980.66 4.61477C1936.61 41.1222 1892.61 77.6525 1848.61 114.19C1847.04 115.494 1845.21 116.53 1845.6 118.939C1847.91 132.863 1850.04 146.811 1852.23 160.827C1858.3 158.129 1859.42 156.574 1858.67 151.361C1857.54 143.427 1856.32 135.5 1854.99 127.582C1854.59 125.249 1855.17 123.596 1857.27 121.858C1905.23 82.1493 1953.12 42.395 2000.96 2.60267C2003.18 0.75824 2005.4 -0.163973 2008.58 0.0113236C2012.54 0.23235 2016.52 0.0646748 2021.06 0.0646748C2018.67 3.15904 2015.6 5.17877 2012.9 7.42714C1963.96 48.1112 1915 88.7648 1865.96 129.365C1863.88 131.08 1863.1 132.619 1863.63 135.02C1864.64 139.723 1865.27 144.479 1866.11 149.532C1924.05 101.203 1981.65 53.172 2039.25 5.13304C2039.81 5.42266 2040.37 5.71228 2040.94 6.0019C2040.94 9.97275 2040.96 13.9512 2040.93 17.9221C2040.92 19.393 2039.38 20.0561 2038.35 20.9174C1993.52 58.1793 1948.67 95.4185 1903.82 132.65C1820.36 201.923 1736.9 271.188 1653.44 340.453C1601.53 383.53 1549.61 426.592 1497.75 469.692C1495.88 471.247 1493.97 471.994 1491.3 471.872C1487.66 471.712 1484 471.841 1480 471.841C1480.37 470.104 1481.86 469.364 1482.95 468.465C1574.29 392.607 1665.65 316.757 1757 240.907C1771.82 228.614 1786.57 216.274 1801.49 204.064C1803.82 202.159 1804.45 200.337 1804.03 197.7C1799.76 170.788 1795.67 143.854 1791.47 116.942C1788.94 100.715 1786.34 84.4891 1783.65 68.278C1783.3 66.2049 1783.69 64.7415 1785.56 63.202C1810.26 42.7837 1834.88 22.3045 1859.5 1.81764C1860.86 0.689646 1862.22 -0.0267844 1864.28 0.0265668C1868.83 0.148512 1873.38 0.0646748 1879.18 0.0646748C1874.84 3.69255 1871.28 6.68784 1867.7 9.66789C1843.37 29.8575 1819.07 50.0547 1794.69 70.2062C1792.79 71.7763 1792.07 73.2549 1792.43 75.549C1796.63 101.828 1800.67 128.13 1804.74 154.425C1806.83 167.885 1808.89 181.337 1810.97 194.857C1816.9 192.716 1818.3 190.422 1817.54 185.59C1813.98 163.068 1810.54 140.538 1807.05 118.016C1805.24 106.325 1803.47 94.6258 1801.51 82.9572C1801.13 80.7012 1801.81 79.2378 1803.74 77.6373C1834.18 52.4632 1864.53 27.2357 1894.86 1.9777C1896.49 0.621051 1898.11 -0.0496492 1900.46 0.0265668C1904.85 0.163756 1909.25 0.0646748 1915.12 0.0646748Z" fill="white" fill-opacity="0.3"/>
<path d="M1513.81 471.842C1689.28 325.66 1864.77 179.47 2040.95 32.7007C2040.95 37.2736 2040.94 41.1454 2040.95 45.0172C2040.95 46.6558 2039.36 47.418 2038.22 48.3707C1980.19 96.5697 1922.12 144.746 1864.07 192.937C1785.49 258.178 1706.91 323.427 1628.33 388.675C1595.8 415.686 1563.23 442.674 1530.73 469.708C1528.85 471.27 1526.95 472.002 1524.29 471.888C1520.65 471.72 1517 471.842 1513.81 471.842Z" fill="white" fill-opacity="0.3"/>
<path d="M1546.17 471.842C1710.89 334.608 1875.4 197.533 2040.92 59.6279C2040.69 67.0514 2042.29 72.8666 2035.18 78.499C2011.87 96.9661 1989.45 116.218 1966.65 135.135C1939.2 157.916 1911.69 180.636 1884.26 203.425C1845.91 235.275 1807.61 267.172 1769.27 299.022C1722.51 337.877 1675.71 376.709 1628.94 415.549C1607.87 433.04 1586.72 450.471 1565.8 468.077C1562.53 470.821 1559.36 472.383 1554.66 471.895C1551.82 471.598 1548.9 471.842 1546.17 471.842Z" fill="white" fill-opacity="0.3"/>
<path d="M1580.02 471.842C1733.21 344.088 1886.69 216.099 2040.94 87.4692C2040.94 92.187 2041 96.0588 2040.92 99.9306C2040.88 101.501 2039.18 102.255 2038.03 103.215C1972.43 157.702 1906.82 212.174 1841.2 266.653C1760.46 333.685 1679.7 400.709 1599.06 467.825C1595.55 470.752 1592.17 472.451 1587.15 471.895C1584.46 471.59 1581.68 471.842 1580.02 471.842Z" fill="white" fill-opacity="0.3"/>
<path d="M1612.37 471.841C1754.85 352.936 1897.28 234.085 2039.71 115.234C2040.14 115.409 2040.57 115.592 2041 115.767C2040.28 121.567 2042.57 127.131 2035.79 132.733C1900.41 244.74 1765.33 356.999 1630.23 469.242C1628.03 471.071 1625.88 472.108 1622.66 471.894C1619.06 471.65 1615.42 471.841 1612.37 471.841Z" fill="white" fill-opacity="0.3"/>
<path d="M1645.17 471.781C1776.82 361.977 1908.27 252.34 2039.71 142.704C2040.13 142.864 2040.55 143.016 2040.97 143.176C2040.17 148.809 2042.87 154.327 2036.17 159.776C1998.59 190.293 1961.53 221.244 1924.36 252.104C1888.93 281.523 1853.62 311.042 1818.2 340.476C1771.55 379.24 1724.87 417.958 1678.2 456.698C1672.9 461.088 1667.54 465.425 1662.29 469.845C1660.69 471.202 1658.99 471.888 1656.65 471.812C1652.73 471.69 1648.81 471.781 1645.17 471.781Z" fill="white" fill-opacity="0.3"/>
<path d="M1685.98 470.943C1697.11 461.759 1708.28 452.605 1719.39 443.398C1754.65 414.169 1789.86 384.925 1825.13 355.704C1827.06 354.111 1828.42 352.648 1827.52 350.11C1826.06 345.964 1830.4 344.569 1833.75 341.764C1834.76 348.174 1835.66 353.89 1836.57 359.606C1836.81 361.131 1835.4 361.862 1834.36 362.731C1798.71 392.333 1763.06 421.936 1727.4 451.53C1720.48 457.269 1713.43 462.902 1706.7 468.786C1704.05 471.103 1701.34 472.162 1697.51 471.888C1693.9 471.636 1690.24 471.834 1686.6 471.834C1686.38 471.537 1686.18 471.24 1685.98 470.943Z" fill="white" fill-opacity="0.3"/>
<path d="M1720.79 471.835C1734.27 460.677 1746.81 450.312 1759.32 439.931C1787.2 416.799 1815.03 393.637 1842.98 370.559C1845.21 368.722 1845.81 366.931 1845.37 364.477C1843.89 355.949 1842.77 347.367 1841.13 338.861C1840.31 334.639 1844.04 333.198 1847.37 330.31C1848.38 336.14 1849.35 341.292 1850.16 346.46C1851.54 355.255 1852.72 364.073 1854.23 372.861C1854.55 374.751 1854 375.917 1852.45 377.19C1815.14 408.103 1777.87 439.047 1740.62 470.013C1739.11 471.271 1737.61 471.919 1735.43 471.866C1731.03 471.759 1726.6 471.835 1720.79 471.835Z" fill="white" fill-opacity="0.3"/>
<path d="M1757.37 471.825C1768.99 462.009 1780.04 452.573 1791.23 443.252C1814.73 423.672 1838.3 404.146 1861.89 384.642C1863.37 383.423 1863.65 382.279 1863.37 380.595C1860.69 363.881 1858.36 347.121 1855.44 330.437C1854.59 325.628 1855.18 321.962 1860.94 319.546C1862.35 321.154 1861.94 323.319 1862.25 325.331C1865.52 346.077 1868.75 366.823 1872.09 387.553C1872.4 389.413 1871.85 390.648 1870.3 391.928C1838.83 418.009 1807.4 444.121 1775.96 470.232C1774.85 471.155 1773.78 471.879 1772.04 471.848C1767.32 471.78 1762.6 471.825 1757.37 471.825Z" fill="white" fill-opacity="0.3"/>
<path d="M1792.52 470.759C1798.44 466.072 1804.44 461.476 1810.24 456.69C1832.99 437.903 1855.63 419.039 1878.39 400.275C1880.67 398.4 1881.38 396.708 1880.93 393.964C1876.73 367.822 1872.89 341.649 1868.7 315.507C1868.02 311.262 1872.22 310.447 1875.12 308.16C1876.32 315.888 1877.53 323.609 1878.73 331.337C1882.35 354.469 1885.93 377.608 1889.62 400.74C1890.07 403.567 1889.57 405.671 1886.94 407.843C1862.42 428.017 1837.99 448.276 1813.69 468.633C1810.87 470.988 1808.12 472.185 1804.13 471.903C1800.55 471.651 1796.93 471.849 1793.33 471.849C1793.06 471.476 1792.79 471.118 1792.52 470.759Z" fill="white" fill-opacity="0.3"/>
<path d="M1827.54 471.833C1839.39 462.04 1850.31 453.046 1861.18 444.022C1872.97 434.251 1884.67 424.419 1896.54 414.717C1898.49 413.124 1899.22 411.577 1898.87 409.374C1895.59 388.628 1892.39 367.867 1889.16 347.113C1886.9 332.648 1884.66 318.182 1882.35 303.724C1881.73 299.829 1885.85 298.884 1888.62 295.988C1889.6 301.727 1890.5 306.673 1891.28 311.635C1896.77 346.976 1902.21 382.325 1907.78 417.659C1908.08 419.526 1907.17 420.532 1905.88 421.607C1886.32 437.849 1866.75 454.075 1847.21 470.324C1845.95 471.376 1844.61 471.902 1842.78 471.864C1838.2 471.78 1833.62 471.833 1827.54 471.833Z" fill="white" fill-opacity="0.3"/>
<path d="M14.5386 0.0744389C26.1465 9.6241 36.8049 18.3659 47.4355 27.1305C70.7067 46.3137 93.9595 65.5197 117.258 84.6877C119.158 86.2501 120.596 87.6372 120.163 90.2208C117.609 105.426 115.295 120.653 112.897 135.881C110.399 151.726 107.9 167.571 105.392 183.446C99.6759 181.503 98.1823 179.171 98.9475 174.27C102.128 153.883 105.208 133.488 108.361 113.1C109.117 108.192 109.919 103.292 110.832 98.4062C111.284 95.9826 110.694 94.184 108.426 92.3243C72.0529 62.4331 35.7814 32.4503 -0.489983 2.47519C-2.41696 0.882312 -4.40847 -0.0932328 -7.31277 0.0515746C-11.4157 0.257353 -15.537 0.104925 -19.7137 0.104925C-19.8151 1.75116 -18.3307 2.23893 -17.4363 2.97059C21.2323 34.9425 59.9101 66.9145 98.6802 98.8102C101.391 101.043 102.525 103.055 101.972 106.386C98.4128 127.741 95.2042 149.135 91.8758 170.513C91.7836 171.107 91.5808 171.686 91.2857 172.791C87.9297 169.857 83.9466 168.508 84.8871 163.409C88.0034 146.49 90.2254 129.448 92.9177 112.475C93.2588 110.349 92.6687 108.924 90.8524 107.43C48.1915 72.28 5.57676 37.0918 -37.0011 1.8731C-38.5316 0.60794 -40.0529 -0.00939696 -42.2288 0.0439531C-46.6452 0.158275 -51.08 0.0820603 -55.4964 0.0820603C-55.856 0.455511 -56.2155 0.828961 -56.5659 1.20241C-54.8141 2.33801 -52.9056 3.33641 -51.3382 4.62444C-7.06383 41.1311 37.1737 77.6607 81.4019 114.198C82.9785 115.501 84.8225 116.538 84.4261 118.946C82.1026 132.87 79.9636 146.818 77.76 160.833C71.6656 158.135 70.5408 156.581 71.2876 151.368C72.4309 143.434 73.6479 135.507 74.994 127.589C75.3905 125.257 74.8096 123.603 72.6983 121.865C24.487 82.1573 -23.6598 42.4039 -71.7512 2.61238C-73.9825 0.76799 -76.2137 -0.154204 -79.4131 0.0210888C-83.3869 0.242111 -87.3883 0.0744389 -91.9522 0.0744389C-89.555 3.16874 -86.4663 5.18842 -83.7465 7.43675C-34.5486 48.12 14.6677 88.7727 63.9669 129.372C66.0506 131.087 66.8344 132.627 66.3088 135.027C65.2854 139.73 64.6584 144.485 63.8102 149.538C5.56754 101.211 -52.334 53.1806 -110.235 5.1427C-110.807 5.43231 -111.369 5.72193 -111.941 6.01154C-111.941 9.98231 -111.96 13.9607 -111.932 17.9315C-111.923 19.4024 -110.374 20.0655 -109.332 20.9267C-64.2646 58.1879 -19.1789 95.4263 25.9068 132.657C109.799 201.928 193.701 271.192 277.603 340.456C329.788 383.532 381.973 426.593 434.112 469.692C435.993 471.247 437.911 471.994 440.594 471.872C444.254 471.712 447.933 471.842 451.953 471.842C451.584 470.104 450.081 469.365 448.984 468.465C357.162 392.609 265.322 316.76 173.491 240.912C158.601 228.619 143.766 216.279 128.774 204.07C126.432 202.165 125.796 200.343 126.22 197.706C130.508 170.795 134.62 143.861 138.842 116.949C141.387 100.723 144.006 84.4971 146.707 68.2863C147.057 66.2133 146.661 64.75 144.789 63.2104C119.96 42.7926 95.2042 22.3138 70.4578 1.82737C69.0932 0.699397 67.7194 -0.0170184 65.6542 0.0363317C61.0811 0.158275 56.4987 0.0744389 50.6717 0.0744389C55.0328 3.70224 58.6101 6.69747 62.2151 9.67745C86.6665 29.8666 111.099 50.0635 135.606 70.2145C137.515 71.7846 138.243 73.2631 137.874 75.5572C133.661 101.836 129.595 128.137 125.501 154.431C123.408 167.891 121.334 181.343 119.241 194.863C113.275 192.722 111.874 190.428 112.639 185.596C116.217 163.074 119.674 140.545 123.178 118.024C125.003 106.333 126.783 94.6336 128.756 82.9652C129.134 80.7093 128.451 79.2459 126.506 77.6454C95.9142 52.4718 65.396 27.2449 34.9147 1.98742C33.2736 0.630804 31.6417 -0.0398827 29.2814 0.0363317C24.865 0.173518 20.4394 0.0744389 14.5386 0.0744389Z" fill="white" fill-opacity="0.3"/>
<path d="M417.961 471.842C241.573 325.662 65.1582 179.476 -111.949 32.7095C-111.949 37.2823 -111.939 41.154 -111.949 45.0257C-111.949 46.6643 -110.353 47.4265 -109.201 48.3792C-50.8661 96.5771 7.50557 144.752 65.8589 192.943C144.856 258.182 223.843 323.429 302.84 388.676C335.543 415.687 368.284 442.674 400.95 469.708C402.84 471.27 404.758 472.002 407.432 471.887C411.083 471.72 414.762 471.842 417.961 471.842Z" fill="white" fill-opacity="0.3"/>
<path d="M385.435 471.842C219.854 334.61 54.475 197.539 -111.918 59.6362C-111.688 67.0595 -113.292 72.8747 -106.146 78.5069C-82.7091 96.9737 -60.1755 116.225 -37.2547 135.142C-9.65925 157.922 17.9915 180.642 45.5685 203.43C84.1172 235.28 122.62 267.176 161.159 299.026C208.172 337.88 255.212 376.711 302.234 415.55C323.413 433.041 344.674 450.471 365.705 468.077C368.987 470.821 372.177 472.383 376.898 471.895C379.756 471.598 382.697 471.842 385.435 471.842Z" fill="white" fill-opacity="0.3"/>
<path d="M351.408 471.842C197.407 344.091 43.1195 216.104 -111.942 87.4771C-111.942 92.1947 -111.997 96.0664 -111.915 99.9381C-111.878 101.508 -110.172 102.263 -109.01 103.223C-43.0689 157.709 22.8909 212.179 88.8506 266.657C170.014 333.688 251.205 400.711 332.267 467.825C335.799 470.752 339.192 472.451 344.244 471.895C346.946 471.59 349.739 471.842 351.408 471.842Z" fill="white" fill-opacity="0.3"/>
<path d="M318.887 471.841C175.654 352.939 32.4771 234.09 -110.7 115.241C-111.133 115.417 -111.567 115.599 -112 115.775C-111.272 121.575 -113.577 127.138 -106.763 132.74C29.3331 244.745 165.125 357.001 300.935 469.242C303.148 471.071 305.306 472.108 308.542 471.894C312.156 471.65 315.816 471.841 318.887 471.841Z" fill="white" fill-opacity="0.3"/>
<path d="M285.922 471.781C153.578 361.979 21.4374 252.345 -110.694 142.71C-111.118 142.87 -111.542 143.023 -111.967 143.183C-111.155 148.815 -113.875 154.333 -107.135 159.782C-69.3611 190.299 -32.1031 221.249 5.25629 252.109C40.8731 281.527 76.37 311.045 111.978 340.479C158.87 379.242 205.8 417.959 252.721 456.699C258.041 461.088 263.434 465.425 268.708 469.845C270.322 471.202 272.027 471.888 274.378 471.812C278.315 471.69 282.261 471.781 285.922 471.781Z" fill="white" fill-opacity="0.3"/>
<path d="M244.893 470.942C233.699 461.759 222.47 452.605 211.304 443.399C175.862 414.17 140.458 384.927 105.007 355.706C103.071 354.113 101.697 352.65 102.6 350.112C104.076 345.966 99.7054 344.571 96.3401 341.767C95.3259 348.176 94.4224 353.892 93.5096 359.608C93.2699 361.133 94.6805 361.864 95.7316 362.733C131.57 392.335 167.408 421.937 203.255 451.531C210.207 457.27 217.297 462.902 224.055 468.786C226.72 471.102 229.449 472.162 233.294 471.887C236.926 471.636 240.605 471.834 244.266 471.834C244.487 471.537 244.69 471.24 244.893 470.942Z" fill="white" fill-opacity="0.3"/>
<path d="M209.893 471.835C196.348 460.677 183.745 450.312 171.169 439.932C143.14 416.801 115.157 393.639 87.0639 370.561C84.8234 368.725 84.2241 366.934 84.6575 364.479C86.1511 355.951 87.276 347.369 88.9263 338.864C89.7469 334.641 86.0036 333.201 82.6475 330.312C81.6333 336.143 80.656 341.295 79.8446 346.462C78.4617 355.257 77.2723 364.075 75.7602 372.863C75.4375 374.753 75.9907 375.919 77.5397 377.192C115.047 408.105 152.517 439.048 189.959 470.014C191.48 471.271 192.992 471.919 195.177 471.866C199.603 471.759 204.056 471.835 209.893 471.835Z" fill="white" fill-opacity="0.3"/>
<path d="M173.123 471.826C161.441 462.009 150.34 452.574 139.092 443.253C115.461 423.673 91.7658 404.147 68.052 384.644C66.5676 383.425 66.291 382.281 66.5676 380.597C69.2599 363.883 71.6017 347.124 74.5429 330.44C75.3912 325.631 74.8011 321.965 69.0109 319.549C67.5911 321.157 68.006 323.322 67.6925 325.334C64.4102 346.08 61.1647 366.825 57.7994 387.555C57.4952 389.415 58.0484 390.65 59.5973 391.93C91.2403 418.011 122.837 444.122 154.434 470.233C155.55 471.155 156.628 471.879 158.38 471.849C163.119 471.78 167.868 471.826 173.123 471.826Z" fill="white" fill-opacity="0.3"/>
<path d="M137.795 470.759C131.848 466.072 125.809 461.476 119.982 456.69C97.1163 437.903 74.3521 419.04 51.4681 400.276C49.1816 398.401 48.4716 396.709 48.9142 393.965C53.1369 367.824 57.0001 341.652 61.2137 315.51C61.8959 311.265 57.6732 310.45 54.7597 308.163C53.5519 315.891 52.3348 323.612 51.127 331.34C47.4943 354.471 43.8893 377.61 40.1829 400.741C39.7311 403.568 40.229 405.672 42.8751 407.844C67.5293 428.018 92.0822 448.276 116.515 468.633C119.346 470.988 122.112 472.184 126.122 471.902C129.718 471.651 133.36 471.849 136.983 471.849C137.251 471.475 137.518 471.117 137.795 470.759Z" fill="white" fill-opacity="0.3"/>
<path d="M102.582 471.833C90.6698 462.04 79.698 453.046 68.7631 444.022C56.9154 434.252 45.1507 424.42 33.22 414.718C31.2562 413.125 30.5278 411.578 30.8781 409.375C34.1789 388.63 37.3967 367.869 40.6421 347.116C42.9102 332.65 45.1599 318.185 47.4833 303.727C48.1103 299.832 43.9705 298.887 41.1769 295.991C40.1996 301.73 39.2868 306.676 38.5123 311.638C32.9895 346.979 27.5221 382.327 21.9163 417.66C21.6213 419.527 22.5341 420.533 23.8341 421.608C43.4911 437.849 63.1665 454.075 82.8051 470.324C84.0775 471.376 85.4236 471.902 87.2676 471.864C91.8683 471.78 96.4691 471.833 102.582 471.833Z" fill="white" fill-opacity="0.3"/>
</svg>
