<svg width="202" height="109" viewBox="0 0 202 109" fill="none" xmlns="http://www.w3.org/2000/svg">
<rect x="15.4688" width="196.162" height="49.9322" transform="rotate(18.0455 15.4688 0)" fill="#EDD569"/>
<path d="M56.6493 45.9511C55.6578 45.6281 54.793 45.1476 54.055 44.5095C53.3293 43.8755 52.7554 43.1333 52.3333 42.2829C51.9112 41.4325 51.6617 40.515 51.585 39.5303C51.5206 38.5497 51.656 37.545 51.9911 36.5163C52.3263 35.4877 52.8087 34.5961 53.4383 33.8415C54.0721 33.0746 54.8079 32.4781 55.6459 32.052C56.488 31.6134 57.387 31.3579 58.3428 31.2855C59.3151 31.2047 60.3032 31.3278 61.3071 31.6549C62.311 31.9819 63.155 32.442 63.8392 33.0351C64.5357 33.6322 65.072 34.3004 65.4481 35.0398C65.8241 35.7793 66.0188 36.5282 66.0322 37.2866L63.0855 37.6838C63.0681 36.9378 62.8326 36.251 62.379 35.6234C61.9418 34.9874 61.3019 34.5321 60.4591 34.2576C59.6411 33.9911 58.8597 33.949 58.1148 34.1313C57.3699 34.3136 56.713 34.6891 56.1438 35.2577C55.5912 35.8179 55.1674 36.5504 54.8727 37.4551C54.5779 38.3599 54.4868 39.2076 54.5993 39.9983C54.7243 40.793 55.034 41.4834 55.5285 42.0695C56.0231 42.6556 56.6793 43.0819 57.4973 43.3484C58.3401 43.623 59.1234 43.6383 59.8472 43.3943C60.5875 43.1419 61.1844 42.7195 61.6379 42.1269L63.7851 44.1837C63.3275 44.7887 62.729 45.2791 61.9896 45.6552C61.2502 46.0312 60.4232 46.2553 59.5085 46.3274C58.6063 46.4036 57.6532 46.2782 56.6493 45.9511ZM69.0809 50.0013C68.077 49.6742 67.2345 49.1462 66.5536 48.417C65.885 47.692 65.432 46.8521 65.1947 45.8974C64.9738 44.9343 65.0289 43.9446 65.36 42.9283C65.6951 41.8996 66.2336 41.0674 66.9754 40.4317C67.7296 39.8 68.5903 39.3881 69.5577 39.196C70.5375 39.008 71.5294 39.0775 72.5333 39.4046C73.5372 39.7317 74.3734 40.2577 75.042 40.9828C75.7106 41.7079 76.1574 42.5458 76.3823 43.4964C76.6196 44.4512 76.5707 45.4429 76.2356 46.4716C75.9045 47.4878 75.3598 48.318 74.6016 48.9621C73.8598 49.5978 73.0052 50.0117 72.0378 50.2038C71.0704 50.3959 70.0848 50.3284 69.0809 50.0013ZM69.8986 47.4916C70.4067 47.6571 70.885 47.6827 71.3336 47.5684C71.7945 47.4581 72.199 47.2265 72.5469 46.8738C72.9073 46.5251 73.1763 46.0781 73.354 45.5327C73.5317 44.9874 73.5756 44.4739 73.4858 43.9922C73.4123 43.5022 73.2219 43.0769 72.9144 42.7162C72.6234 42.3472 72.2237 42.0799 71.7156 41.9144C71.2075 41.7488 70.7209 41.7274 70.2559 41.8501C69.795 41.9604 69.3844 42.1899 69.024 42.5386C68.68 42.8789 68.4192 43.3218 68.2416 43.8671C68.0639 44.4124 68.0118 44.9301 68.0852 45.4202C68.171 45.9142 68.3676 46.3416 68.6751 46.7023C68.9826 47.0629 69.3904 47.326 69.8986 47.4916ZM76.2249 52.0821L79.5319 41.9315L82.1346 42.7795L81.329 45.252L81.1834 44.7522C81.5865 44.0198 82.1337 43.5606 82.825 43.3745C83.5162 43.1885 84.2585 43.2247 85.0517 43.4831C85.8944 43.7577 86.5612 44.2148 87.052 44.8545C87.5592 45.4859 87.7762 46.1872 87.7031 46.9586L86.8795 46.7725C87.4847 46.0511 88.1617 45.5931 88.9106 45.3984C89.6595 45.2037 90.4492 45.2416 91.2796 45.5121C92.0108 45.7504 92.6028 46.1214 93.0555 46.6254C93.5206 47.1334 93.8194 47.7311 93.9519 48.4186C94.0884 49.0937 94.0315 49.8155 93.7811 50.5839L91.6552 57.1092L88.8666 56.2007L90.7987 50.2703C90.9279 49.8737 90.9646 49.5086 90.9087 49.1751C90.8653 48.8456 90.7397 48.5579 90.5319 48.312C90.3241 48.0661 90.0343 47.8826 89.6625 47.7614C89.3031 47.6443 88.9608 47.6219 88.6356 47.6942C88.3229 47.7705 88.0457 47.927 87.8041 48.1636C87.5749 48.4042 87.3957 48.7229 87.2665 49.1195L85.3343 55.0499L82.5457 54.1414L84.4778 48.2109C84.6071 47.8143 84.6437 47.4493 84.5879 47.1158C84.5444 46.7863 84.4188 46.4986 84.211 46.2527C84.0032 46.0068 83.7135 45.8232 83.3416 45.7021C82.9822 45.585 82.6399 45.5626 82.3148 45.6349C82.002 45.7112 81.7248 45.8677 81.4832 46.1043C81.254 46.3449 81.0748 46.6635 80.9456 47.0601L79.0135 52.9906L76.2249 52.0821ZM92.2789 61.4252L96.7973 47.5566L99.4 48.4045L98.7701 50.338L98.7101 49.7015C99.2103 49.3024 99.7899 49.0593 100.449 48.9724C101.124 48.8771 101.834 48.9506 102.577 49.1929C103.544 49.5079 104.341 50.028 104.968 50.7534C105.596 51.4787 106.008 52.3189 106.204 53.2739C106.404 54.2165 106.342 55.1836 106.019 56.1751C105.7 57.1542 105.18 57.9718 104.459 58.628C103.751 59.2883 102.929 59.7267 101.995 59.9433C101.061 60.1598 100.098 60.1066 99.1064 59.7836C98.4123 59.5575 97.8082 59.2236 97.2941 58.7819C96.7963 58.3318 96.4485 57.8004 96.2506 57.1875L96.8846 56.7566L95.0675 62.3338L92.2789 61.4252ZM99.5894 57.1648C100.11 57.3344 100.607 57.3661 101.08 57.2598C101.554 57.1535 101.97 56.926 102.331 56.5773C102.691 56.2286 102.96 55.7816 103.138 55.2363C103.315 54.6909 103.359 54.1774 103.27 53.6958C103.184 53.2017 102.981 52.7723 102.661 52.4076C102.345 52.0305 101.927 51.7572 101.406 51.5876C100.911 51.4261 100.426 51.3985 99.9528 51.5047C99.4919 51.615 99.0813 51.8445 98.7209 52.1932C98.3729 52.546 98.1101 52.995 97.9324 53.5404C97.7547 54.0857 97.7026 54.6034 97.776 55.0934C97.8618 55.5875 98.0585 56.0148 98.3659 56.3755C98.6858 56.7402 99.0936 57.0033 99.5894 57.1648ZM109.068 63.0291C108.337 62.7909 107.743 62.4672 107.287 62.0581C106.831 61.649 106.531 61.1811 106.387 60.6545C106.247 60.1154 106.277 59.5423 106.474 58.935C106.66 58.3648 106.954 57.9053 107.355 57.5563C107.761 57.1949 108.279 56.9523 108.909 56.8285C109.551 56.7087 110.295 56.7181 111.141 56.8566L114.409 57.3661L113.743 59.4111L110.989 59.0279C110.568 58.9731 110.222 59.0043 109.951 59.1216C109.683 59.2264 109.495 59.4462 109.386 59.7808C109.285 60.0907 109.324 60.3707 109.503 60.6209C109.682 60.8712 109.945 61.0528 110.292 61.1659C110.751 61.3153 111.186 61.3474 111.598 61.2621C112.009 61.1769 112.362 60.9972 112.657 60.7232C112.969 60.4407 113.191 60.095 113.324 59.686L114.184 57.0461C114.31 56.6619 114.26 56.2892 114.035 55.928C113.822 55.5708 113.455 55.3074 112.935 55.1379C112.439 54.9763 111.955 54.9693 111.482 55.1168C111.021 55.2683 110.631 55.5389 110.312 55.9286L108.427 54.1421C108.811 53.6366 109.286 53.25 109.853 52.9823C110.42 52.7146 111.044 52.5682 111.724 52.543C112.404 52.5177 113.103 52.6222 113.822 52.8564C114.677 53.135 115.383 53.5363 115.939 54.0601C116.495 54.584 116.861 55.1833 117.039 55.8581C117.233 56.5246 117.211 57.2234 116.973 57.9547L114.792 64.6473L112.19 63.7994L112.723 62.1634L113.391 62.2578C112.948 62.6071 112.499 62.8719 112.043 63.0522C111.59 63.2202 111.119 63.2996 110.628 63.2906C110.134 63.294 109.614 63.2068 109.068 63.0291ZM116.838 65.3136L120.145 55.1631L122.747 56.0111L122.093 58.0189L122.09 57.5242C122.523 56.9936 123.047 56.6706 123.66 56.5552C124.29 56.4313 124.958 56.4845 125.664 56.7147C126.433 56.965 127.05 57.3442 127.515 57.8522C127.992 58.3642 128.297 58.9639 128.43 59.6514C128.566 60.3265 128.509 61.0483 128.259 61.8167L126.133 68.3421L123.344 67.4335L125.277 61.5031C125.406 61.1065 125.436 60.7394 125.368 60.4019C125.312 60.0683 125.168 59.7746 124.935 59.5206C124.715 59.2706 124.419 59.0851 124.047 58.964C123.688 58.8469 123.339 58.8224 123.002 58.8907C122.664 58.9589 122.369 59.1093 122.115 59.3419C121.873 59.5785 121.688 59.8951 121.558 60.2917L119.626 66.2222L116.838 65.3136ZM127.967 68.9395L131.274 58.7889L134.062 59.6974L130.755 69.848L127.967 68.9395ZM131.57 57.878L132.479 55.0894L135.268 55.9979L134.359 58.7865L131.57 57.878ZM137.613 72.3288C136.534 71.9776 135.675 71.4372 135.036 70.7078C134.4 69.966 133.996 69.1217 133.825 68.1748C133.654 67.2278 133.727 66.2648 134.046 65.2857C134.378 64.2694 134.895 63.4373 135.6 62.7895C136.317 62.1457 137.134 61.7197 138.052 61.5115C138.97 61.3032 139.912 61.3566 140.879 61.6716C141.685 61.934 142.355 62.2963 142.89 62.7585C143.429 63.2083 143.834 63.7311 144.106 64.327C144.391 64.9268 144.545 65.5668 144.571 66.2468C144.6 66.9144 144.499 67.6014 144.269 68.3078C144.205 68.5061 144.128 68.7004 144.038 68.8906C143.965 69.0725 143.882 69.2235 143.788 69.3437L136.184 66.8664L136.85 64.8215L142.874 66.7839L141.239 67.3206C141.537 66.828 141.684 66.355 141.681 65.9016C141.682 65.4358 141.547 65.0286 141.277 64.6801C141.023 64.3232 140.648 64.064 140.152 63.9025C139.669 63.745 139.215 63.7274 138.792 63.8499C138.368 63.9723 137.994 64.2345 137.672 64.6366C137.349 65.0386 137.099 65.5741 136.922 66.2431C136.687 66.7971 136.591 67.3212 136.636 67.8156C136.68 68.3099 136.854 68.7436 137.158 69.1167C137.465 69.4773 137.892 69.7465 138.437 69.9242C138.933 70.0857 139.387 70.1238 139.798 70.0386C140.222 69.9574 140.59 69.7756 140.901 69.4931L142.787 71.2796C142.427 71.7108 141.97 72.0416 141.415 72.2721C140.872 72.5066 140.275 72.6343 139.624 72.6553C138.977 72.6638 138.307 72.555 137.613 72.3288ZM148.067 75.7348C146.951 75.3714 146.063 74.7941 145.402 74.003C144.758 73.2036 144.432 72.3093 144.426 71.32L146.786 71.0195C146.868 71.6497 147.082 72.1923 147.427 72.6475C147.773 73.1027 148.218 73.4192 148.763 73.5968C149.16 73.7261 149.49 73.7444 149.753 73.652C150.016 73.5595 150.194 73.3707 150.287 73.0857C150.335 72.9369 150.339 72.8009 150.297 72.6775C150.259 72.5417 150.179 72.4062 150.059 72.271C149.938 72.1358 149.777 72.0009 149.574 71.8662L148.002 70.8196C147.249 70.3136 146.734 69.7276 146.457 69.0617C146.184 68.3834 146.165 67.6848 146.399 66.966C146.605 66.3339 146.946 65.8349 147.422 65.4689C147.898 65.1029 148.469 64.8847 149.136 64.8142C149.808 64.7313 150.521 64.813 151.277 65.0593C152.269 65.3824 153.06 65.9005 153.65 66.6137C154.257 67.3186 154.577 68.1429 154.613 69.0866L152.234 69.3811C152.223 68.9112 152.059 68.4877 151.743 68.1107C151.444 67.7252 151.046 67.4517 150.551 67.2902C150.191 67.1731 149.882 67.1546 149.623 67.2347C149.376 67.3188 149.21 67.491 149.125 67.7513C149.081 67.8876 149.078 68.0237 149.116 68.1594C149.154 68.2952 149.239 68.4327 149.372 68.572C149.517 68.7152 149.702 68.8644 149.925 69.0196L151.385 70.0299C152.147 70.5523 152.669 71.1403 152.949 71.7938C153.234 72.4349 153.257 73.1211 153.019 73.8523C152.813 74.4844 152.466 74.9814 151.978 75.3434C151.502 75.7094 150.929 75.9338 150.257 76.0167C149.59 76.0872 148.86 75.9932 148.067 75.7348Z" fill="white"/>
</svg>
