<svg width="203" height="106" viewBox="0 0 203 106" fill="none" xmlns="http://www.w3.org/2000/svg">
<rect y="57.7617" width="196.162" height="49.9322" transform="rotate(-17.125 0 57.7617)" fill="#2F2F2F"/>
<path d="M52.8339 73.6088L52.0279 70.9929L52.8687 70.7338C53.4293 70.561 53.8298 70.2672 54.0702 69.8521C54.3192 69.4207 54.3631 68.9435 54.2019 68.4203L51.2541 58.8532L54.1503 57.9608L57.0578 67.3971C57.3342 68.294 57.3829 69.1383 57.204 69.9299C57.0251 70.7216 56.632 71.4156 56.0246 72.0119C55.4297 72.6044 54.6464 73.0504 53.6748 73.3498L52.8339 73.6088ZM65.7865 69.8634C64.7774 70.1743 63.7846 70.2279 62.808 70.0242C61.8438 69.8166 60.9897 69.3909 60.2458 68.7472C59.5105 68.0872 58.9854 67.2464 58.6707 66.2249C58.3521 65.191 58.3129 64.2006 58.5531 63.2536C58.8057 62.3028 59.2721 61.4703 59.9523 60.7561C60.6449 60.038 61.4957 59.5235 62.5047 59.2126C63.5138 58.9017 64.5004 58.8501 65.4646 59.0577C66.4287 59.2652 67.2766 59.6928 68.008 60.3404C68.752 60.9841 69.2832 61.8229 69.6018 62.8569C69.9165 63.8784 69.9495 64.8707 69.7007 65.834C69.4605 66.7809 69.0004 67.6115 68.3202 68.3257C67.6401 69.04 66.7955 69.5525 65.7865 69.8634ZM65.0092 67.3409C65.5199 67.1835 65.9257 66.9289 66.2265 66.5771C66.5397 66.2214 66.737 65.7992 66.8183 65.3104C66.912 64.8178 66.8744 64.2974 66.7055 63.7493C66.5366 63.2012 66.2768 62.7561 65.9259 62.4141C65.5836 62.0558 65.1829 61.8178 64.7238 61.7001C64.2733 61.5661 63.7927 61.5778 63.282 61.7352C62.7712 61.8926 62.3612 62.1553 62.0518 62.5234C61.7385 62.8791 61.535 63.3033 61.4413 63.7959C61.3562 64.2722 61.3981 64.7844 61.567 65.3326C61.7359 65.8807 61.9914 66.3339 62.3337 66.6922C62.6884 67.0466 63.0954 67.2827 63.5544 67.4004C64.0135 67.5181 64.4985 67.4982 65.0092 67.3409ZM78.6117 65.9118C77.9141 66.1267 77.2279 66.2017 76.5532 66.1368C75.8871 66.0556 75.2967 65.8215 74.7819 65.4346L74.865 64.7747L75.4408 66.6433L72.8248 67.4493L68.4664 53.3043L71.2693 52.4407L73.0828 58.3266L72.4804 57.8985C72.6593 57.2841 72.9931 56.7516 73.4817 56.301C73.9789 55.8341 74.6012 55.4855 75.3486 55.2552C76.3203 54.9558 77.2714 54.9219 78.2021 55.1534C79.1327 55.385 79.9533 55.8346 80.6637 56.5023C81.3702 57.1576 81.877 57.9835 82.1841 58.98C82.4873 59.9642 82.5332 60.9321 82.3218 61.8838C82.1228 62.8317 81.7039 63.6632 81.0649 64.3784C80.426 65.0936 79.6082 65.6047 78.6117 65.9118ZM77.4981 63.4928C78.0213 63.3316 78.4457 63.0713 78.7714 62.7118C79.0971 62.3522 79.3068 61.9262 79.4006 61.4335C79.4943 60.9409 79.4567 60.4205 79.2878 59.8724C79.1189 59.3243 78.8591 58.8793 78.5082 58.5373C78.1534 58.1828 77.7403 57.9487 77.2687 57.8348C76.7933 57.7085 76.2941 57.7259 75.7709 57.8871C75.2726 58.0407 74.8606 58.2972 74.5349 58.6567C74.2216 59.0124 74.0182 59.4365 73.9244 59.9291C73.8432 60.4179 73.887 60.9364 74.0558 61.4845C74.2247 62.0326 74.4803 62.4858 74.8226 62.8441C75.1773 63.1986 75.5842 63.4346 76.0433 63.5523C76.5149 63.6662 76.9998 63.6464 77.4981 63.4928ZM94.0934 61.1415C93.2214 61.4102 92.3513 61.5078 91.483 61.4344C90.6233 61.3446 89.823 61.0934 89.082 60.6806C88.3535 60.264 87.7294 59.6993 87.2097 58.9865L89.2546 57.1902C89.8375 57.8426 90.5014 58.2928 91.2461 58.5407C92.0033 58.7848 92.7556 58.7917 93.503 58.5614C93.9017 58.4386 94.2251 58.2707 94.4732 58.0579C94.7213 57.845 94.8937 57.6078 94.9904 57.3461C95.0833 57.072 95.0836 56.7854 94.9915 56.4865C94.8917 56.1626 94.7076 55.9192 94.4392 55.7564C94.167 55.5811 93.798 55.4902 93.3322 55.4837L90.3278 55.4274C89.1078 55.4077 88.1158 55.1542 87.3518 54.6667C86.5839 54.1667 86.0561 53.4496 85.7682 52.5153C85.5149 51.6931 85.4916 50.9092 85.6983 50.1635C85.9175 49.414 86.3346 48.7535 86.9496 48.1821C87.5771 47.6069 88.3642 47.1734 89.311 46.8817C90.1456 46.6245 90.9621 46.5298 91.7604 46.5975C92.5588 46.6653 93.2939 46.882 93.9658 47.2479C94.6502 47.6099 95.2365 48.118 95.7245 48.7724L93.6983 50.5629C93.2371 49.9957 92.6893 49.6121 92.0548 49.4121C91.4164 49.1996 90.7609 49.197 90.0882 49.4042C89.7021 49.5232 89.3787 49.6911 89.1181 49.9077C88.8575 50.1244 88.6827 50.3761 88.5937 50.6627C88.5008 50.9368 88.5005 51.2233 88.5926 51.5223C88.6924 51.8462 88.8865 52.1001 89.1751 52.284C89.4598 52.4554 89.835 52.5444 90.3008 52.5509L93.2377 52.5871C94.4701 52.6029 95.4602 52.8503 96.2079 53.3292C96.968 53.8042 97.4921 54.5089 97.7799 55.4432C98.0294 56.2529 98.0403 57.0406 97.8125 57.8065C97.5808 58.5598 97.147 59.2323 96.5109 59.8238C95.8834 60.3991 95.0776 60.8383 94.0934 61.1415ZM105.837 57.5232C104.753 57.8572 103.739 57.9103 102.796 57.6826C101.849 57.4424 101.033 56.9846 100.348 56.3092C99.6622 55.6339 99.1678 54.8041 98.8646 53.82C98.5499 52.7985 98.4939 51.8201 98.6967 50.8846C98.912 49.9454 99.3348 49.1263 99.9651 48.4274C100.595 47.7285 101.396 47.2294 102.368 46.93C103.178 46.6805 103.934 46.5906 104.638 46.6603C105.337 46.7175 105.97 46.9114 106.536 47.2418C107.114 47.5683 107.609 48.0023 108.021 48.5436C108.43 49.0724 108.743 49.6919 108.962 50.4019C109.023 50.6013 109.072 50.8044 109.109 51.0114C109.154 51.2021 109.173 51.3736 109.165 51.526L101.523 53.8808L100.889 51.8254L106.943 49.96L105.916 51.3404C105.876 50.7664 105.724 50.2949 105.46 49.926C105.192 49.5447 104.848 49.2895 104.426 49.1602C104.013 49.0147 103.557 49.0187 103.059 49.1723C102.573 49.322 102.192 49.5689 101.916 49.9131C101.641 50.2572 101.486 50.6866 101.454 51.2013C101.422 51.7159 101.526 52.2976 101.767 52.9463C101.893 53.5347 102.117 54.0181 102.439 54.3965C102.76 54.7749 103.152 55.0292 103.615 55.1594C104.074 55.2771 104.577 55.2515 105.126 55.0826C105.624 54.9291 106.017 54.6989 106.304 54.3921C106.604 54.0815 106.8 53.7211 106.892 53.3109L109.462 53.6851C109.416 54.2448 109.233 54.7786 108.912 55.2867C108.604 55.7909 108.189 56.2391 107.669 56.6313C107.145 57.011 106.534 57.3083 105.837 57.5232ZM117.26 54.0036C116.176 54.3375 115.162 54.3906 114.219 54.1629C113.272 53.9227 112.456 53.4649 111.771 52.7896C111.085 52.1142 110.591 51.2845 110.288 50.3004C109.973 49.2789 109.917 48.3004 110.12 47.365C110.335 46.4257 110.758 45.6066 111.388 44.9078C112.018 44.2089 112.819 43.7097 113.791 43.4103C114.601 43.1609 115.357 43.071 116.061 43.1406C116.76 43.1979 117.393 43.3917 117.959 43.7221C118.537 44.0487 119.032 44.4826 119.444 45.0239C119.853 45.5528 120.166 46.1722 120.385 46.8823C120.446 47.0816 120.495 47.2848 120.532 47.4917C120.577 47.6824 120.596 47.854 120.588 48.0064L112.946 50.3611L112.312 48.3057L118.367 46.4403L117.339 47.8207C117.299 47.2467 117.147 46.7753 116.883 46.4064C116.615 46.0251 116.271 45.7698 115.849 45.6406C115.436 45.4951 114.98 45.4991 114.482 45.6526C113.996 45.8023 113.615 46.0492 113.339 46.3934C113.064 46.7376 112.909 47.167 112.877 47.6816C112.845 48.1963 112.949 48.7779 113.19 49.4266C113.316 50.015 113.54 50.4984 113.862 50.8768C114.183 51.2553 114.575 51.5096 115.038 51.6397C115.497 51.7574 116 51.7318 116.549 51.5629C117.047 51.4094 117.44 51.1793 117.727 50.8725C118.027 50.5618 118.223 50.2014 118.315 49.7912L120.885 50.1654C120.839 50.7251 120.656 51.259 120.335 51.767C120.027 52.2712 119.612 52.7194 119.092 53.1116C118.568 53.4913 117.957 53.7886 117.26 54.0036ZM123.699 51.7739L119.341 37.6289L122.144 36.7653L124.936 45.8278L123.786 45.8139L126.815 39.6428L130.272 38.5777L127.839 43.8285L133.397 48.7858L130.221 49.7646L125.543 45.5386L127.042 44.6266L124.969 48.9889L125.328 47.0984L126.502 50.9103L123.699 51.7739ZM139.449 47.1667C138.365 47.5006 137.352 47.5537 136.409 47.326C135.462 47.0858 134.645 46.628 133.96 45.9527C133.274 45.2773 132.78 44.4476 132.477 43.4635C132.162 42.442 132.106 41.4635 132.309 40.5281C132.524 39.5888 132.947 38.7697 133.577 38.0709C134.208 37.372 135.009 36.8728 135.98 36.5735C136.79 36.324 137.547 36.2341 138.25 36.3037C138.95 36.361 139.582 36.5548 140.148 36.8852C140.726 37.2118 141.221 37.6457 141.633 38.187C142.042 38.7159 142.355 39.3353 142.574 40.0454C142.636 40.2447 142.685 40.4479 142.721 40.6548C142.766 40.8455 142.785 41.0171 142.777 41.1695L135.135 43.5242L134.502 41.4688L140.556 39.6034L139.528 40.9838C139.488 40.4098 139.336 39.9384 139.072 39.5695C138.805 39.1882 138.46 38.9329 138.038 38.8037C137.625 38.6582 137.169 38.6622 136.671 38.8157C136.185 38.9654 135.805 39.2123 135.529 39.5565C135.253 39.9007 135.099 40.3301 135.066 40.8447C135.034 41.3594 135.138 41.941 135.379 42.5897C135.506 43.1781 135.73 43.6615 136.051 44.0399C136.372 44.4184 136.764 44.6727 137.227 44.8028C137.686 44.9205 138.19 44.8949 138.738 44.726C139.236 44.5725 139.629 44.3424 139.916 44.0356C140.216 43.7249 140.412 43.3645 140.504 42.9543L143.074 43.3285C143.028 43.8882 142.845 44.4221 142.524 44.9301C142.216 45.4343 141.802 45.8825 141.281 46.2747C140.757 46.6544 140.146 46.9517 139.449 47.1667ZM145.889 44.937L142.745 34.7346L145.361 33.9286L146.115 36.3764L145.819 36.079C145.778 35.1503 145.967 34.4579 146.386 34.0015C146.813 33.5289 147.382 33.1832 148.092 32.9644L148.69 32.7802L149.438 35.2093L148.56 35.4799C147.875 35.691 147.386 36.0736 147.093 36.6276C146.796 37.1692 146.765 37.8199 146.999 38.5798L148.691 44.0734L145.889 44.937Z" fill="white"/>
</svg>
