<svg width="1920" height="1247" viewBox="0 0 1920 1247" fill="none" xmlns="http://www.w3.org/2000/svg">
<path d="M178.454 148.004C179.002 145.94 178.413 143.755 176.934 142.368L153.176 120.073L157.454 86.0452C157.72 83.927 156.84 81.8637 155.183 80.7229C153.527 79.582 151.382 79.5611 149.649 80.6696L121.82 98.4736L92.9132 84.4907C91.1139 83.6203 88.9794 83.9292 87.4079 85.2876C85.8364 86.646 85.1 88.8183 85.5081 90.8908L92.0665 124.189L69.9238 149.575C68.5456 151.155 68.1064 153.409 68.7914 155.39C69.4766 157.37 71.1664 158.733 73.1511 158.906L105.034 161.681L120.255 191.354C121.21 193.214 123.081 194.284 125.061 194.151C127.056 194.016 128.837 192.687 129.656 190.721L142.802 159.138L174.352 152.09C176.316 151.651 177.906 150.067 178.454 148.004V148.004Z" fill="#FCB901"/>
<path d="M178.454 148.004C179.002 145.94 178.413 143.755 176.934 142.368L153.176 120.073L157.454 86.0452C157.72 83.927 156.84 81.8637 155.183 80.7229C153.527 79.582 151.382 79.5611 149.649 80.6696L121.82 98.4736L92.9132 84.4907C91.1139 83.6203 88.9794 83.9292 87.4079 85.2876C85.8364 86.646 85.1 88.8183 85.5081 90.8908L92.0665 124.189L69.9238 149.575C68.5456 151.155 68.1064 153.409 68.7914 155.39C69.4766 157.37 71.1664 158.733 73.1511 158.906L105.034 161.681L120.255 191.354C121.21 193.214 123.081 194.284 125.061 194.151C127.056 194.016 128.837 192.687 129.656 190.721L142.802 159.138L174.352 152.09C176.316 151.651 177.906 150.067 178.454 148.004V148.004Z" fill="#EDD569"/>
<path d="M120.084 127.631C94.6128 128.867 69.0852 131.085 43.6145 132.321C38.8163 132.54 36.7358 139.937 41.2157 142.068C49.4066 146.89 57.4475 151.116 65.6384 155.937C56.2859 158.547 48.3382 155.897 39.1734 152.024C35.1998 150.699 30.4572 149.936 27.1222 153.551C21.8371 159.062 23.9744 169.957 24.4997 176.859C25.8878 194.413 29.3194 211.649 28.6645 229.521C27.4851 250.129 16.5951 244.226 6.69827 233.835C-3.91084 223.026 -13.0769 209.515 -20.4062 196.072C-33.0404 172.405 -45.3557 146.39 -65.9367 129.711C-77.3703 120.445 -99.9557 116.28 -108.314 133.676C-118.733 154.93 -117.27 187.237 -110.24 209.127C-107.24 221.036 -77.3219 296.465 -110.216 282.681C-134.302 272.561 -151.004 236.356 -163.132 213.495C-164.8 210.484 -169.354 212.875 -168.248 216.062C-159.194 241.171 -143.861 265.919 -125.023 284.108C-114.714 293.727 -90.7229 302.27 -85.4575 281.025C-79.2553 256.274 -94.0638 228.791 -101.6 206.097C-106.68 191.948 -106.587 174.252 -106.101 159.323C-105.016 127.502 -81.2315 126.794 -63.8745 145.126C-42.7122 167.726 -32.5712 199.562 -14.6884 224.797C-8.20283 233.686 12.8654 264.346 28.0282 253.492C45.4957 240.95 37.5647 205.851 35.2588 188.264C35.2026 189.246 30.8149 159.782 34.6391 160.512C38.4626 161.241 42.3794 163.547 46.3533 164.871C53.944 167.311 60.936 167.368 67.8888 164.868C63.6159 171.989 60.0552 179.529 57.2068 187.489C55.8576 191.767 60.9934 195.297 64.4232 193.258C87.5695 177.974 103.612 154.958 123.665 135.824C126.945 133.191 124.527 127.203 120.084 127.631ZM79.6585 158.61C80.8954 156.295 79.527 154.475 77.8964 154.022C77.8026 152.446 77.1465 151.045 75.722 150.207C71.0923 147.481 66.1066 144.547 61.4769 141.821C76.9959 140.813 92.1593 139.595 107.678 138.587C95.9273 150.942 85.0386 164.313 72.2753 175.057C74.5987 169.833 77.1286 164.221 79.6585 158.61Z" fill="white" fill-opacity="0.08"/>
<mask id="mask0_2_778" style="mask-type:alpha" maskUnits="userSpaceOnUse" x="1635" y="564" width="594" height="683">
<rect x="1635" y="1084.58" width="571" height="394" transform="rotate(-65.7418 1635 1084.58)" fill="#2E2E2E"/>
</mask>
<g mask="url(#mask0_2_778)">
<path d="M2055.33 1194.34L1804.42 847.78L2230.25 806.189L2055.33 1194.34Z" stroke="white" stroke-opacity="0.24" stroke-width="56.8844"/>
</g>
</svg>
