<svg width="1920" height="2377" viewBox="0 0 1920 2377" fill="none" xmlns="http://www.w3.org/2000/svg">
<path d="M2146.84 1259.71C2093.15 1241.51 2043.98 1224.75 1994.73 1208.1C1886.94 1171.66 1779.07 1135.32 1671.32 1098.77C1662.54 1095.79 1655 1093.86 1644.26 1099.23C1581.06 1130.82 1517.51 1161.75 1454.05 1192.92C1388.01 1225.37 1321.98 1257.82 1255.82 1290.34C1270.3 1303.71 1281.99 1304.29 1302.42 1294.28C1387.42 1252.63 1472.56 1211.25 1557.59 1169.68C1578.06 1159.68 1598.46 1149.56 1618.66 1139.14C1628.69 1133.98 1637.11 1132.81 1647.57 1136.38C1815.65 1193.48 1984.01 1250.14 2152.35 1306.82C2161.29 1309.83 2167.63 1314.01 2170.07 1322.6C2173.53 1334.74 2178.55 1346.37 2182.97 1358.39C2175.95 1361.31 2172.26 1357.81 2168.14 1356.4C1988.62 1296.01 1809.08 1235.59 1629.78 1174.78C1617.23 1170.53 1607.31 1170.47 1593.46 1177.38C1504.66 1221.66 1415.33 1265 1326.2 1308.65C1323.72 1309.87 1321.42 1311.37 1316.94 1313.99C1333.21 1318.97 1343.28 1328.29 1364.38 1317.46C1434.42 1281.52 1505.93 1247.96 1576.65 1213.15C1585.51 1208.78 1592.31 1208.21 1600.71 1211.06C1798.23 1277.89 1995.88 1344.52 2193.62 1410.99C2200.72 1413.39 2205.01 1416.78 2207.08 1423.13C2211.26 1436.03 2216.29 1448.68 2220.96 1461.4C2219.72 1463.03 2218.49 1464.66 2217.24 1466.27C2210.46 1463.03 2204.11 1459.13 2196.87 1456.67C1991.75 1387.36 1786.58 1318.19 1581.38 1249.06C1574.06 1246.6 1567.61 1242.94 1557.6 1247.92C1499.7 1276.8 1441.51 1305.19 1383.1 1333.88C1401.24 1347.13 1409.17 1347.89 1430.98 1337.43C1464.16 1321.49 1497.22 1305.35 1530.12 1288.86C1539.81 1284 1547.59 1283.03 1557.36 1286.34C1780.52 1361.89 2003.81 1437.17 2227.21 1512.24C2237.56 1515.73 2243.92 1520.68 2246.55 1530.17C2249.8 1541.97 2254.76 1553.22 2259.6 1566.37C2243.65 1564.4 2231.62 1558.72 2219 1554.47C1990.56 1477.64 1762.24 1400.71 1534.07 1323.45C1524.43 1320.18 1516.93 1320.38 1507.08 1325.72C1487.78 1336.16 1467.83 1345.55 1446.82 1356.04C1717.97 1446.74 1987.46 1536.92 2256.99 1627.09C2256.34 1629.2 2255.68 1631.28 2255.03 1633.39C2237.82 1639.72 2220.59 1646.11 2203.35 1652.36C2196.97 1654.68 2192.45 1651.28 2187.62 1649.65C1978.39 1579.26 1769.24 1508.78 1560.13 1438.29C1171.05 1307.11 781.989 1175.9 392.93 1044.68C150.961 963.063 -90.9414 881.42 -332.96 799.97C-341.691 797.032 -346.959 792.7 -349.271 784.78C-352.453 773.984 -356.91 763.597 -361.167 752.021C-353.244 750.314 -348.449 753.463 -343.389 755.189C82.6315 898.703 508.638 1042.28 934.635 1185.83C1003.69 1209.12 1072.88 1232.17 1141.67 1255.88C1152.41 1259.59 1160.98 1258.52 1171.96 1253.1C1284.07 1197.86 1396.46 1143.09 1508.63 1088.04C1576.27 1054.85 1643.83 1021.45 1711.23 987.832C1719.84 983.519 1726.61 982.328 1735.26 985.264C1850.05 1024.22 1965.03 1062.87 2080.03 1101.48C2086.36 1103.61 2090.92 1106.43 2092.88 1112.46C2097.19 1125.82 2102.41 1138.88 2108.58 1155.66C2088.24 1148.89 2071.47 1143.36 2054.73 1137.73C1941.33 1099.49 1827.92 1061.32 1714.63 1022.87C1705.8 1019.88 1698.62 1020.14 1689.07 1024.85C1579.63 1078.87 1469.93 1132.5 1360.29 1186.2C1304.17 1213.67 1248.06 1241.09 1191.67 1268.66C1207.27 1282.43 1218.7 1282.81 1238.83 1272.9C1332.66 1226.71 1426.65 1180.84 1520.56 1134.86C1569.3 1110.97 1618.13 1087.2 1666.61 1062.92C1675.99 1058.24 1683.06 1057.87 1692.05 1060.92C1833.56 1108.89 1975.22 1156.57 2116.97 1204.09C2124.59 1206.65 2129.22 1210.28 2131.39 1217.2C2135.47 1230.13 2140.59 1242.72 2146.84 1259.71Z" fill="#EDD569" fill-opacity="0.06"/>
<path d="M-325.187 849.899C495.187 1124.85 1315.62 1399.87 2139.3 1675.96C2119.48 1683.24 2102.69 1689.39 2085.92 1695.58C2078.82 1698.2 2073.82 1694.82 2068.47 1693.02C1797.8 1601.85 1527.18 1510.54 1256.51 1419.31C890.087 1295.81 523.64 1172.35 157.184 1048.86C5.48116 997.731 -146.162 946.464 -297.925 895.482C-306.698 892.53 -311.9 888.173 -314.236 880.292C-317.375 869.511 -321.799 859.111 -325.187 849.899Z" fill="#EDD569" fill-opacity="0.06"/>
<path d="M-290.741 943.559C479.409 1201.65 1248.65 1459.42 2022.57 1718.78C1990.15 1729.95 1966.64 1743.84 1934.66 1732.24C1829.8 1694.18 1722.5 1659.97 1616.23 1624.12C1488.27 1580.96 1360.52 1537.55 1232.54 1494.46C1053.68 1434.21 874.656 1374.18 695.797 1313.96C477.606 1240.5 259.486 1166.93 41.3514 1093.43C-56.888 1060.32 -154.951 1026.88 -253.53 994.376C-268.898 989.297 -279.047 982.601 -281.932 968.23C-283.67 959.525 -287.841 951.445 -290.741 943.559Z" fill="#EDD569" fill-opacity="0.06"/>
<path d="M-254.714 1041.54C462.079 1281.4 1180.2 1521.71 1901.91 1763.22C1881.46 1770.74 1864.74 1777.07 1847.87 1783C1841.03 1785.4 1835.95 1781.69 1830.56 1779.88C1524.57 1676.83 1218.63 1573.7 912.656 1470.59C536.176 1343.7 159.699 1216.72 -217.037 1090.26C-233.462 1084.76 -244.421 1077.69 -247.359 1062.26C-248.898 1053.99 -252.947 1046.35 -254.714 1041.54Z" fill="#EDD569" fill-opacity="0.06"/>
<path d="M-220.259 1135.19C446.777 1358.14 1113.52 1581.02 1780.27 1803.9C1779.97 1805.43 1779.64 1806.96 1779.33 1808.49C1753.42 1815.64 1731.75 1831.14 1700.25 1820.45C1070.67 1607.06 440.319 1394.94 -189.987 1182.75C-200.258 1179.29 -207.035 1174.73 -209.537 1165.07C-212.307 1154.27 -217.008 1144.04 -220.259 1135.19Z" fill="#EDD569" fill-opacity="0.06"/>
<path d="M-185.102 1230.03C430.961 1436.13 1046.08 1641.91 1661.2 1847.67C1660.95 1849.14 1660.74 1850.61 1660.49 1852.08C1635.22 1858.72 1614.19 1875.35 1583.43 1864.63C1411.16 1804.49 1237.56 1746.53 1064.24 1688.13C899.014 1632.45 733.484 1577.28 568.201 1521.66C350.534 1448.4 133.026 1374.97 -84.5712 1301.6C-109.232 1293.28 -133.74 1284.66 -158.484 1276.51C-166.073 1274.03 -170.852 1270.21 -173.011 1263.32C-176.652 1251.79 -181.226 1240.57 -185.102 1230.03Z" fill="#EDD569" fill-opacity="0.06"/>
<path d="M-138.021 1346.85C-86.3625 1364.44 -34.7972 1382.19 16.9313 1399.67C181.147 1455.15 345.389 1510.49 509.582 1566.01C518.536 1569.04 526.333 1570.67 536.377 1564.02C552.786 1553.16 563.459 1563.52 579.179 1568.75C552.471 1581.88 528.652 1593.59 504.842 1605.33C498.489 1608.45 493.824 1605.56 488.945 1603.91C322.691 1547.89 156.437 1491.87 -9.79383 1435.81C-42.0299 1424.94 -73.9501 1413.5 -106.609 1403.41C-119.473 1399.43 -126.954 1393.26 -129.836 1381.76C-132.592 1370.89 -137.347 1360.62 -141.223 1350.08C-140.168 1348.96 -139.095 1347.91 -138.021 1346.85Z" fill="#EDD569" fill-opacity="0.06"/>
<path d="M-104.827 1449.05C-42.1224 1470.27 16.1504 1490.05 74.4599 1509.72C204.399 1553.56 334.42 1597.23 464.196 1641.35C474.53 1644.87 482.928 1643.74 493.106 1638.58C528.49 1620.69 564.496 1603.77 599.615 1585.46C617.047 1576.37 627.255 1584.85 643.328 1589.92C619.131 1602.13 597.834 1613.15 576.296 1623.73C539.638 1641.73 502.677 1659.21 466.189 1677.57C458.338 1681.51 452.698 1681.77 445.541 1679.34C271.838 1620.6 98.0417 1562.02 -75.8243 1503.55C-82.8858 1501.18 -87.2948 1497.85 -89.3773 1491.48C-93.6009 1478.56 -98.6467 1465.86 -104.827 1449.05Z" fill="#EDD569" fill-opacity="0.06"/>
<path d="M-65.8524 1554.93C-10.9345 1572.93 41.7166 1589.85 94.0284 1607.39C203.916 1644.23 313.641 1681.35 423.286 1718.55C430.144 1720.88 435.392 1719.85 442.399 1716.37C511.994 1681.98 582.157 1648.53 651.356 1613.47C671.302 1603.36 687.817 1599.22 704.42 1612.04C698.953 1618.69 689.132 1620.95 680.743 1625.06C594.298 1667.57 507.814 1709.98 421.523 1752.71C413.785 1756.55 407.847 1756.93 400.658 1754.51C254.107 1704.95 107.474 1655.58 -39.1591 1606.21C-44.3376 1604.47 -48.6182 1602.52 -50.3409 1597.42C-55.0616 1583.67 -60.2877 1570.07 -65.8524 1554.93Z" fill="#EDD569" fill-opacity="0.06"/>
<path d="M-23.8313 1654.97C2.78195 1664.63 29.0965 1674.69 56.0122 1683.84C161.654 1719.75 267.519 1755.24 373.081 1791.23C383.629 1794.82 391.714 1794.17 403.138 1788.52C511.975 1734.7 621.326 1681.86 730.173 1628.06C747.851 1619.33 755.857 1630.19 768.852 1634.94C736.634 1650.73 704.459 1666.54 672.24 1682.34C575.827 1729.67 479.351 1776.93 383.015 1824.47C371.238 1830.27 361.593 1832.19 349.376 1828.03C235.828 1789.19 122.024 1750.78 7.91755 1712.86C-5.2873 1708.46 -13.4024 1702.41 -16.427 1690.41C-19.1443 1679.65 -23.8594 1669.48 -27.6961 1659.05C-26.3605 1657.68 -25.0911 1656.34 -23.8313 1654.97Z" fill="#EDD569" fill-opacity="0.06"/>
<path d="M8.8091 1758.07C63.872 1776.76 114.471 1794.02 165.162 1811.13C220.058 1829.67 275.129 1847.88 329.815 1866.77C338.799 1869.89 346.276 1869.52 355.452 1865C441.878 1822.43 528.457 1780.08 614.974 1737.66C675.272 1708.07 735.589 1678.54 795.796 1648.8C812.013 1640.79 820.493 1651.21 836.004 1654.63C812.164 1666.6 791.691 1677.11 771.005 1687.25C623.671 1759.48 476.246 1831.56 329.033 1904.01C321.252 1907.84 315.925 1906.81 309.89 1904.78C218.68 1874.06 127.515 1843.27 36.291 1812.61C30.385 1810.62 26.6803 1807.59 24.8929 1802.22C20.3847 1788.83 15.2818 1775.67 8.8091 1758.07Z" fill="#EDD569" fill-opacity="0.06"/>
</svg>
