<svg width="436" height="468" viewBox="0 0 436 468" fill="none" xmlns="http://www.w3.org/2000/svg">
<path d="M397.94 177.838C398.598 175.358 397.891 172.733 396.114 171.066L367.567 144.277L372.707 103.39C373.027 100.845 371.969 98.3654 369.979 96.9946C367.989 95.6238 365.411 95.5987 363.329 96.9307L329.89 118.324L295.156 101.522C292.994 100.476 290.43 100.847 288.541 102.48C286.653 104.112 285.768 106.722 286.259 109.212L294.139 149.222L267.533 179.725C265.877 181.624 265.349 184.333 266.172 186.713C266.995 189.092 269.026 190.73 271.411 190.938L309.72 194.273L328.01 229.926C329.158 232.162 331.405 233.447 333.784 233.287C336.182 233.126 338.322 231.528 339.305 229.166L355.102 191.216L393.011 182.748C395.371 182.221 397.282 180.317 397.94 177.838Z" fill="#FCB901"/>
<path d="M397.94 177.838C398.598 175.358 397.891 172.733 396.114 171.066L367.567 144.277L372.707 103.39C373.027 100.845 371.969 98.3654 369.979 96.9946C367.989 95.6238 365.411 95.5987 363.329 96.9307L329.89 118.324L295.156 101.522C292.994 100.476 290.43 100.847 288.541 102.48C286.653 104.112 285.768 106.722 286.259 109.212L294.139 149.222L267.533 179.725C265.877 181.624 265.349 184.333 266.172 186.713C266.995 189.092 269.026 190.73 271.411 190.938L309.72 194.273L328.01 229.926C329.158 232.162 331.405 233.447 333.784 233.287C336.182 233.126 338.322 231.528 339.305 229.166L355.102 191.216L393.011 182.748C395.371 182.221 397.282 180.317 397.94 177.838Z" fill="#EDD569"/>
<path d="M327.802 153.356C297.197 154.842 266.523 157.506 235.918 158.992C230.153 159.255 227.653 168.143 233.036 170.704C242.878 176.497 252.54 181.575 262.382 187.368C251.144 190.504 241.594 187.32 230.582 182.666C225.807 181.075 220.109 180.158 216.101 184.502C209.751 191.123 212.319 204.214 212.95 212.508C214.618 233.6 218.742 254.31 217.955 275.786C216.537 300.547 203.452 293.454 191.56 280.969C178.813 267.981 167.799 251.747 158.992 235.594C143.811 207.156 129.014 175.896 104.284 155.856C90.5454 144.722 63.4074 139.717 53.364 160.62C40.8444 186.158 42.6031 224.978 51.0502 251.28C54.6544 265.59 90.6036 356.224 51.0783 339.661C22.1382 327.501 2.06927 283.999 -12.5035 256.529C-14.5081 252.911 -19.9805 255.784 -18.6515 259.613C-7.77229 289.783 10.6517 319.52 33.2866 341.376C45.6739 352.933 74.5013 363.199 80.828 337.671C88.2806 307.93 70.4869 274.908 61.4318 247.639C55.3275 230.639 55.4388 209.375 56.0232 191.436C57.3269 153.201 85.9059 152.351 106.762 174.378C132.19 201.533 144.375 239.787 165.863 270.108C173.656 280.79 198.971 317.63 217.19 304.588C238.179 289.519 228.649 247.344 225.878 226.212C225.811 227.391 220.539 191.989 225.134 192.865C229.728 193.741 234.434 196.512 239.209 198.103C248.33 201.035 256.731 201.104 265.086 198.099C259.951 206.656 255.673 215.716 252.25 225.281C250.629 230.42 256.8 234.662 260.921 232.213C288.734 213.847 308.01 186.192 332.106 163.201C336.046 160.037 333.141 152.842 327.802 153.356ZM279.228 190.58C280.714 187.798 279.07 185.612 277.111 185.068C276.998 183.173 276.21 181.49 274.498 180.483C268.935 177.208 262.944 173.682 257.381 170.407C276.029 169.196 294.249 167.732 312.896 166.52C298.776 181.367 285.693 197.432 270.356 210.343C273.148 204.065 276.188 197.322 279.228 190.58Z" fill="white" fill-opacity="0.08"/>
</svg>
