<svg width="272" height="45" viewBox="0 0 272 45" fill="none" xmlns="http://www.w3.org/2000/svg">
<path d="M234.434 42.6642C234.262 44.0442 235.124 44.5617 236.332 44.0442L246.684 38.8692C247.891 38.1791 249.962 38.1791 251.169 38.8692L261.521 43.8717C262.729 44.5617 263.591 43.8717 263.419 42.4917L261.694 31.1066C261.521 29.7266 262.039 27.8291 263.074 26.7941L271.183 18.5141C272.218 17.4791 271.873 16.4441 270.492 16.2716L259.106 14.374C257.725 14.2015 256.173 12.994 255.483 11.7865L250.134 1.609C249.444 0.401493 248.409 0.401493 247.891 1.609L242.543 11.7865C241.853 12.994 240.3 14.2015 238.92 14.374L227.533 16.2716C226.153 16.4441 225.808 17.4791 226.843 18.5141L234.779 26.9666C235.815 28.0016 236.332 29.8991 236.16 31.2791L234.434 42.6642ZM179.743 31.2791C179.916 29.8991 179.226 28.0016 178.363 26.9666L170.254 18.8591C169.219 17.8241 169.564 16.9616 170.944 16.6166L182.331 14.719C183.711 14.5465 185.264 13.339 185.954 12.1315L191.302 1.95399C191.993 0.746489 193.028 0.746489 193.545 1.95399L198.894 12.1315C199.584 13.339 201.137 14.5465 202.517 14.719L213.904 16.6166C215.284 16.7891 215.629 17.8241 214.594 18.8591L206.485 27.1391C205.45 28.1741 204.932 30.0716 205.105 31.4516L206.83 42.8367C207.002 44.2167 206.14 44.9067 204.932 44.2167L194.581 39.2142C193.373 38.5242 191.302 38.6967 190.095 39.2142L179.743 44.3892C178.535 45.0792 177.673 44.3892 177.845 43.0092L179.743 31.2791ZM123.327 31.2791C123.499 29.8991 122.809 28.0016 121.947 26.9666L113.838 18.8591C112.803 17.8241 113.148 16.9616 114.528 16.6166L125.915 14.719C127.295 14.5465 128.848 13.339 129.538 12.1315L134.886 1.95399C135.576 0.746489 136.611 0.746489 137.129 1.95399L142.477 12.1315C143.167 13.339 144.72 14.5465 146.1 14.719L157.487 16.6166C158.867 16.7891 159.212 17.8241 158.177 18.8591L150.069 27.1391C149.033 28.1741 148.516 30.0716 148.688 31.4516L150.414 42.8367C150.586 44.2167 149.723 44.9067 148.516 44.2167L138.164 39.2142C136.956 38.5242 134.886 38.6967 133.678 39.2142L123.327 44.3892C122.119 45.0792 121.256 44.3892 121.429 43.0092L123.327 31.2791ZM66.9105 31.2791C67.083 29.8991 66.3929 28.0016 65.5303 26.9666L57.4215 18.8591C56.3863 17.8241 56.7313 16.9616 58.1115 16.6166L69.4984 14.719C70.8786 14.5465 72.4313 13.339 73.1214 12.1315L78.4698 1.95399C79.1599 0.746489 80.1951 0.746489 80.7126 1.95399L86.0609 12.1315C86.7511 13.339 88.3038 14.5465 89.6841 14.719L101.071 16.6166C102.451 16.7891 102.796 17.8241 101.761 18.8591L93.6522 27.1391C92.617 28.1741 92.0995 30.0716 92.272 31.4516L93.9973 42.8367C94.1698 44.2167 93.3071 44.9067 92.0994 44.2167L81.7478 39.2142C80.5401 38.5242 78.4698 38.6967 77.2621 39.2142L66.9105 44.3892C65.7028 45.0792 64.8401 44.3892 65.0126 43.0092L66.9105 31.2791ZM10.4941 31.2791C10.6666 29.8991 9.9765 28.0016 9.11386 26.9666L1.00507 18.8591C-0.030097 17.8241 0.315004 16.9616 1.69522 16.6166L13.082 14.719C14.4622 14.5465 16.0149 13.339 16.705 12.1315L22.0534 1.95399C22.7435 0.746489 23.7787 0.746489 24.2962 1.95399L29.6445 12.1315C30.3347 13.339 31.8875 14.5465 33.2677 14.719L44.6544 16.6166C46.0346 16.7891 46.3797 17.8241 45.3446 18.8591L37.2358 27.1391C36.2006 28.1741 35.683 30.0716 35.8556 31.4516L37.5809 42.8367C37.7534 44.2167 36.8907 44.9067 35.683 44.2167L25.3314 39.2142C24.1237 38.5242 22.0534 38.6967 20.8457 39.2142L10.4941 44.3892C9.28639 45.0792 8.42379 44.3892 8.59631 43.0092L10.4941 31.2791Z" fill="#FFCD1A"/>
</svg>
